<svg xmlns="http://www.w3.org/2000/svg" width="500" zoomAndPan="magnify" viewBox="0 0 375 374.999991" height="500" preserveAspectRatio="xMidYMid meet" version="1.0"><defs><g/><clipPath id="d9cb4dfa35"><path d="M 105.011719 84.3125 L 248.1875 84.3125 L 248.1875 228.746094 L 105.011719 228.746094 Z M 105.011719 84.3125 " clip-rule="nonzero"/></clipPath><clipPath id="ab78693558"><path d="M 126.59375 84.3125 L 269.730469 84.3125 L 269.730469 228.746094 L 126.59375 228.746094 Z M 126.59375 84.3125 " clip-rule="nonzero"/></clipPath><clipPath id="6b70e1749c"><path d="M 105.011719 67.46875 L 269.730469 67.46875 L 269.730469 173 L 105.011719 173 Z M 105.011719 67.46875 " clip-rule="nonzero"/></clipPath></defs><g clip-path="url(#d9cb4dfa35)"><path fill="#292a61" d="M 160.652344 142.015625 C 160.601562 142.015625 160.546875 142.015625 160.546875 142.015625 L 113.753906 141.332031 C 108.855469 141.277344 104.910156 137.226562 105.015625 132.328125 C 105.066406 127.488281 109.066406 123.59375 113.910156 123.59375 C 113.960938 123.59375 114.015625 123.59375 114.015625 123.59375 L 160.8125 124.277344 C 165.707031 124.328125 169.65625 128.382812 169.550781 133.277344 C 169.496094 138.121094 165.496094 142.015625 160.652344 142.015625 Z M 209.765625 229.027344 C 206.605469 229.027344 203.554688 227.34375 201.921875 224.394531 L 179.601562 183.285156 C 177.289062 178.96875 178.867188 173.597656 183.183594 171.230469 C 187.5 168.914062 192.867188 170.492188 195.234375 174.808594 L 217.554688 215.921875 C 219.871094 220.234375 218.292969 225.605469 213.976562 227.976562 C 212.660156 228.65625 211.1875 229.027344 209.765625 229.027344 Z M 214.1875 124.277344 L 230.609375 124.015625 L 246.820312 98.324219 C 249.402344 94.164062 248.191406 88.691406 244.035156 86.058594 C 239.875 83.480469 234.398438 84.691406 231.769531 88.851562 L 207.765625 126.960938 C 207.660156 127.171875 207.554688 127.382812 207.449219 127.539062 C 209.027344 125.59375 211.449219 124.328125 214.1875 124.277344 " fill-opacity="1" fill-rule="nonzero"/></g><g clip-path="url(#ab78693558)"><path fill="#1676ad" d="M 214.34375 142.015625 C 209.5 142.015625 205.554688 138.121094 205.449219 133.277344 C 205.394531 128.382812 209.292969 124.328125 214.1875 124.277344 L 260.929688 123.59375 C 265.929688 123.539062 269.878906 127.433594 269.929688 132.328125 C 269.984375 137.226562 266.089844 141.277344 261.191406 141.332031 L 214.449219 142.015625 C 214.398438 142.015625 214.398438 142.015625 214.34375 142.015625 Z M 144.335938 124.015625 L 160.8125 124.277344 C 163.496094 124.328125 165.863281 125.539062 167.445312 127.433594 C 167.390625 127.277344 167.285156 127.171875 167.230469 127.015625 L 143.230469 88.902344 C 140.597656 84.746094 135.121094 83.480469 130.964844 86.113281 C 126.804688 88.746094 125.542969 94.21875 128.175781 98.378906 Z M 179.601562 183.285156 C 178.390625 180.96875 178.234375 178.386719 179.023438 176.125 C 178.972656 176.175781 178.917969 176.28125 178.917969 176.335938 L 157.441406 215.921875 C 155.125 220.234375 156.703125 225.65625 161.019531 227.976562 C 162.335938 228.65625 163.8125 229.027344 165.230469 229.027344 C 168.390625 229.027344 171.445312 227.34375 173.074219 224.394531 L 187.5 197.8125 L 179.601562 183.285156 " fill-opacity="1" fill-rule="nonzero"/></g><g clip-path="url(#6b70e1749c)"><path fill="#afca00" d="M 187.445312 126.328125 C 186.023438 126.328125 184.550781 125.960938 183.234375 125.277344 C 178.917969 122.960938 177.339844 117.539062 179.65625 113.222656 L 201.972656 72.109375 C 204.292969 67.796875 209.710938 66.214844 214.03125 68.53125 C 218.34375 70.847656 219.925781 76.269531 217.605469 80.585938 L 195.289062 121.695312 C 193.65625 124.644531 190.605469 126.328125 187.445312 126.328125 Z M 153.074219 158.492188 C 154.496094 156.28125 156.652344 154.914062 159.023438 154.492188 C 158.96875 154.492188 158.914062 154.492188 158.914062 154.492188 C 158.914062 154.492188 158.863281 154.492188 158.808594 154.492188 L 113.753906 155.121094 C 108.855469 155.175781 104.960938 159.226562 105.015625 164.125 C 105.117188 168.964844 109.066406 172.859375 113.910156 172.859375 C 113.910156 172.859375 113.960938 172.859375 114.015625 172.859375 L 144.28125 172.441406 Z M 261.246094 155.121094 L 216.1875 154.492188 C 216.1875 154.492188 216.136719 154.492188 216.082031 154.492188 C 216.082031 154.492188 216.082031 154.492188 216.027344 154.492188 C 218.34375 154.914062 220.554688 156.332031 221.925781 158.492188 L 230.714844 172.441406 L 260.984375 172.859375 C 260.984375 172.859375 261.035156 172.859375 261.085938 172.859375 C 265.929688 172.859375 269.929688 168.964844 269.984375 164.125 C 270.089844 159.226562 266.140625 155.175781 261.246094 155.121094 " fill-opacity="1" fill-rule="nonzero"/></g><path fill="#21314d" d="M 135.648438 211.707031 C 134.019531 211.707031 132.386719 211.289062 130.910156 210.339844 C 126.753906 207.710938 125.542969 202.234375 128.121094 198.078125 L 153.074219 158.492188 C 155.707031 154.332031 161.179688 153.121094 165.339844 155.703125 C 169.496094 158.332031 170.707031 163.808594 168.125 167.96875 L 143.175781 207.550781 C 141.492188 210.234375 138.597656 211.707031 135.648438 211.707031 Z M 239.347656 211.707031 C 236.402344 211.707031 233.507812 210.234375 231.820312 207.550781 L 206.871094 167.96875 C 204.238281 163.808594 205.5 158.332031 209.660156 155.703125 C 213.816406 153.070312 219.292969 154.332031 221.925781 158.492188 L 246.875 198.078125 C 249.507812 202.234375 248.246094 207.710938 244.085938 210.339844 C 242.609375 211.289062 240.980469 211.707031 239.347656 211.707031 Z M 179.65625 113.222656 L 187.5 98.796875 L 173.023438 72.109375 C 170.652344 67.796875 165.285156 66.214844 160.96875 68.53125 C 156.652344 70.898438 155.074219 76.269531 157.390625 80.585938 L 178.867188 120.171875 C 178.972656 120.378906 179.074219 120.59375 179.234375 120.75 C 178.285156 118.378906 178.339844 115.644531 179.65625 113.222656 " fill-opacity="1" fill-rule="nonzero"/><g fill="#21314d" fill-opacity="1"><g transform="translate(6.721738, 296.173649)"><g><path d="M 35.234375 -37.734375 C 35.703125 -37.421875 35.972656 -37.019531 36.046875 -36.53125 C 36.117188 -36.050781 36.003906 -35.578125 35.703125 -35.109375 C 35.429688 -34.765625 35.082031 -34.570312 34.65625 -34.53125 C 34.226562 -34.488281 33.816406 -34.566406 33.421875 -34.765625 C 31.953125 -35.734375 30.367188 -36.488281 28.671875 -37.03125 C 26.984375 -37.582031 25.171875 -37.859375 23.234375 -37.859375 C 20.867188 -37.859375 18.664062 -37.4375 16.625 -36.59375 C 14.582031 -35.757812 12.804688 -34.554688 11.296875 -32.984375 C 9.785156 -31.410156 8.609375 -29.554688 7.765625 -27.421875 C 6.929688 -25.285156 6.515625 -22.9375 6.515625 -20.375 C 6.515625 -17.738281 6.941406 -15.34375 7.796875 -13.1875 C 8.648438 -11.03125 9.84375 -9.175781 11.375 -7.625 C 12.914062 -6.070312 14.691406 -4.890625 16.703125 -4.078125 C 18.722656 -3.265625 20.898438 -2.859375 23.234375 -2.859375 C 25.140625 -2.859375 26.9375 -3.128906 28.625 -3.671875 C 30.3125 -4.210938 31.894531 -4.945312 33.375 -5.875 C 33.757812 -6.113281 34.175781 -6.203125 34.625 -6.140625 C 35.070312 -6.085938 35.429688 -5.863281 35.703125 -5.46875 C 36.046875 -5.039062 36.171875 -4.582031 36.078125 -4.09375 C 35.984375 -3.613281 35.722656 -3.238281 35.296875 -2.96875 C 34.316406 -2.34375 33.164062 -1.757812 31.84375 -1.21875 C 30.53125 -0.675781 29.132812 -0.242188 27.65625 0.078125 C 26.1875 0.410156 24.710938 0.578125 23.234375 0.578125 C 20.441406 0.578125 17.820312 0.0703125 15.375 -0.9375 C 12.925781 -1.945312 10.75 -3.375 8.84375 -5.21875 C 6.945312 -7.0625 5.460938 -9.265625 4.390625 -11.828125 C 3.328125 -14.390625 2.796875 -17.238281 2.796875 -20.375 C 2.796875 -23.40625 3.316406 -26.191406 4.359375 -28.734375 C 5.410156 -31.273438 6.867188 -33.476562 8.734375 -35.34375 C 10.597656 -37.207031 12.769531 -38.660156 15.25 -39.703125 C 17.738281 -40.753906 20.398438 -41.28125 23.234375 -41.28125 C 25.453125 -41.28125 27.585938 -40.96875 29.640625 -40.34375 C 31.703125 -39.726562 33.566406 -38.859375 35.234375 -37.734375 Z M 35.234375 -37.734375 "/></g></g></g><g fill="#21314d" fill-opacity="1"><g transform="translate(49.860507, 296.173649)"><g><path d="M 41.8125 -20.375 C 41.8125 -17.3125 41.332031 -14.507812 40.375 -11.96875 C 39.425781 -9.425781 38.078125 -7.210938 36.328125 -5.328125 C 34.585938 -3.441406 32.523438 -1.984375 30.140625 -0.953125 C 27.753906 0.0664062 25.140625 0.578125 22.296875 0.578125 C 19.460938 0.578125 16.851562 0.0664062 14.46875 -0.953125 C 12.082031 -1.984375 10.015625 -3.441406 8.265625 -5.328125 C 6.523438 -7.210938 5.175781 -9.425781 4.21875 -11.96875 C 3.269531 -14.507812 2.796875 -17.3125 2.796875 -20.375 C 2.796875 -23.445312 3.269531 -26.253906 4.21875 -28.796875 C 5.175781 -31.335938 6.523438 -33.550781 8.265625 -35.4375 C 10.015625 -37.320312 12.082031 -38.773438 14.46875 -39.796875 C 16.851562 -40.828125 19.460938 -41.34375 22.296875 -41.34375 C 25.140625 -41.34375 27.753906 -40.828125 30.140625 -39.796875 C 32.523438 -38.773438 34.585938 -37.320312 36.328125 -35.4375 C 38.078125 -33.550781 39.425781 -31.335938 40.375 -28.796875 C 41.332031 -26.253906 41.8125 -23.445312 41.8125 -20.375 Z M 38.078125 -20.375 C 38.078125 -23.832031 37.40625 -26.867188 36.0625 -29.484375 C 34.726562 -32.109375 32.878906 -34.160156 30.515625 -35.640625 C 28.148438 -37.117188 25.410156 -37.859375 22.296875 -37.859375 C 19.234375 -37.859375 16.507812 -37.117188 14.125 -35.640625 C 11.738281 -34.160156 9.875 -32.109375 8.53125 -29.484375 C 7.1875 -26.867188 6.515625 -23.832031 6.515625 -20.375 C 6.515625 -16.925781 7.1875 -13.890625 8.53125 -11.265625 C 9.875 -8.648438 11.738281 -6.601562 14.125 -5.125 C 16.507812 -3.644531 19.234375 -2.90625 22.296875 -2.90625 C 25.410156 -2.90625 28.148438 -3.644531 30.515625 -5.125 C 32.878906 -6.601562 34.726562 -8.648438 36.0625 -11.265625 C 37.40625 -13.890625 38.078125 -16.925781 38.078125 -20.375 Z M 38.078125 -20.375 "/></g></g></g><g fill="#21314d" fill-opacity="1"><g transform="translate(99.577599, 296.173649)"><g><path d="M 35.296875 -40.765625 C 35.796875 -40.765625 36.191406 -40.609375 36.484375 -40.296875 C 36.773438 -39.984375 36.921875 -39.597656 36.921875 -39.140625 L 36.921875 -1.859375 C 36.921875 -1.273438 36.734375 -0.816406 36.359375 -0.484375 C 35.992188 -0.160156 35.578125 0 35.109375 0 C 34.878906 0 34.628906 -0.046875 34.359375 -0.140625 C 34.085938 -0.242188 33.875 -0.390625 33.71875 -0.578125 L 7.75 -35.578125 L 8.734375 -36.109375 L 8.734375 -1.578125 C 8.734375 -1.148438 8.578125 -0.78125 8.265625 -0.46875 C 7.953125 -0.15625 7.566406 0 7.109375 0 C 6.597656 0 6.195312 -0.15625 5.90625 -0.46875 C 5.613281 -0.78125 5.46875 -1.148438 5.46875 -1.578125 L 5.46875 -39.015625 C 5.46875 -39.597656 5.640625 -40.035156 5.984375 -40.328125 C 6.335938 -40.617188 6.726562 -40.765625 7.15625 -40.765625 C 7.394531 -40.765625 7.648438 -40.710938 7.921875 -40.609375 C 8.191406 -40.515625 8.40625 -40.351562 8.5625 -40.125 L 34.234375 -5.53125 L 33.65625 -4.484375 L 33.65625 -39.140625 C 33.65625 -39.597656 33.820312 -39.984375 34.15625 -40.296875 C 34.488281 -40.609375 34.867188 -40.765625 35.296875 -40.765625 Z M 35.296875 -40.765625 "/></g></g></g><g fill="#21314d" fill-opacity="1"><g transform="translate(147.082521, 296.173649)"><g><path d="M 16.71875 0.578125 C 13.757812 0.617188 11.191406 0.15625 9.015625 -0.8125 C 6.847656 -1.78125 4.773438 -3.238281 2.796875 -5.1875 C 2.597656 -5.34375 2.429688 -5.535156 2.296875 -5.765625 C 2.160156 -5.992188 2.09375 -6.265625 2.09375 -6.578125 C 2.09375 -7.046875 2.273438 -7.472656 2.640625 -7.859375 C 3.015625 -8.242188 3.4375 -8.4375 3.90625 -8.4375 C 4.363281 -8.4375 4.789062 -8.242188 5.1875 -7.859375 C 6.695312 -6.234375 8.410156 -4.992188 10.328125 -4.140625 C 12.253906 -3.285156 14.320312 -2.859375 16.53125 -2.859375 C 18.394531 -2.859375 20.054688 -3.144531 21.515625 -3.71875 C 22.972656 -4.300781 24.128906 -5.132812 24.984375 -6.21875 C 25.835938 -7.3125 26.265625 -8.578125 26.265625 -10.015625 C 26.265625 -11.796875 25.78125 -13.238281 24.8125 -14.34375 C 23.84375 -15.457031 22.5625 -16.375 20.96875 -17.09375 C 19.375 -17.8125 17.609375 -18.460938 15.671875 -19.046875 C 14.078125 -19.503906 12.5625 -20.035156 11.125 -20.640625 C 9.6875 -21.242188 8.40625 -21.984375 7.28125 -22.859375 C 6.15625 -23.734375 5.28125 -24.8125 4.65625 -26.09375 C 4.039062 -27.375 3.734375 -28.925781 3.734375 -30.75 C 3.734375 -32.800781 4.273438 -34.625 5.359375 -36.21875 C 6.441406 -37.8125 7.984375 -39.0625 9.984375 -39.96875 C 11.984375 -40.882812 14.304688 -41.34375 16.953125 -41.34375 C 19.234375 -41.34375 21.429688 -40.953125 23.546875 -40.171875 C 25.671875 -39.398438 27.351562 -38.257812 28.59375 -36.75 C 29.175781 -36.125 29.46875 -35.5625 29.46875 -35.0625 C 29.46875 -34.664062 29.269531 -34.273438 28.875 -33.890625 C 28.488281 -33.503906 28.066406 -33.3125 27.609375 -33.3125 C 27.210938 -33.3125 26.878906 -33.445312 26.609375 -33.71875 C 25.953125 -34.53125 25.117188 -35.253906 24.109375 -35.890625 C 23.097656 -36.535156 21.976562 -37.03125 20.75 -37.375 C 19.53125 -37.726562 18.265625 -37.90625 16.953125 -37.90625 C 15.117188 -37.90625 13.472656 -37.625 12.015625 -37.0625 C 10.566406 -36.5 9.425781 -35.691406 8.59375 -34.640625 C 7.757812 -33.597656 7.34375 -32.335938 7.34375 -30.859375 C 7.34375 -29.234375 7.804688 -27.894531 8.734375 -26.84375 C 9.660156 -25.800781 10.878906 -24.9375 12.390625 -24.25 C 13.910156 -23.570312 15.523438 -22.941406 17.234375 -22.359375 C 18.898438 -21.890625 20.5 -21.351562 22.03125 -20.75 C 23.570312 -20.15625 24.929688 -19.410156 26.109375 -18.515625 C 27.296875 -17.617188 28.226562 -16.492188 28.90625 -15.140625 C 29.59375 -13.785156 29.9375 -12.078125 29.9375 -10.015625 C 29.9375 -8.035156 29.375 -6.25 28.25 -4.65625 C 27.125 -3.0625 25.578125 -1.796875 23.609375 -0.859375 C 21.648438 0.0664062 19.351562 0.546875 16.71875 0.578125 Z M 16.71875 0.578125 "/></g></g></g><g fill="#21314d" fill-opacity="1"><g transform="translate(184.923713, 296.173649)"><g><path d="M 7.21875 -40.765625 L 28.59375 -40.765625 C 29.0625 -40.765625 29.46875 -40.597656 29.8125 -40.265625 C 30.164062 -39.941406 30.34375 -39.523438 30.34375 -39.015625 C 30.34375 -38.515625 30.164062 -38.109375 29.8125 -37.796875 C 29.46875 -37.484375 29.0625 -37.328125 28.59375 -37.328125 L 8.5625 -37.328125 L 9.140625 -38.3125 L 9.140625 -21.953125 L 8.5 -22.71875 L 25.96875 -22.71875 C 26.4375 -22.71875 26.84375 -22.539062 27.1875 -22.1875 C 27.539062 -21.832031 27.71875 -21.425781 27.71875 -20.96875 C 27.71875 -20.457031 27.539062 -20.046875 27.1875 -19.734375 C 26.84375 -19.429688 26.4375 -19.28125 25.96875 -19.28125 L 8.625 -19.28125 L 9.140625 -19.859375 L 9.140625 -3.09375 L 8.859375 -3.4375 L 28.59375 -3.4375 C 29.0625 -3.4375 29.46875 -3.257812 29.8125 -2.90625 C 30.164062 -2.5625 30.34375 -2.15625 30.34375 -1.6875 C 30.34375 -1.1875 30.164062 -0.78125 29.8125 -0.46875 C 29.46875 -0.15625 29.0625 0 28.59375 0 L 7.21875 0 C 6.75 0 6.335938 -0.171875 5.984375 -0.515625 C 5.640625 -0.867188 5.46875 -1.28125 5.46875 -1.75 L 5.46875 -39.015625 C 5.46875 -39.484375 5.640625 -39.890625 5.984375 -40.234375 C 6.335938 -40.585938 6.75 -40.765625 7.21875 -40.765625 Z M 7.21875 -40.765625 "/></g></g></g><g fill="#21314d" fill-opacity="1"><g transform="translate(223.114207, 296.173649)"><g><path d="M 35.296875 -40.765625 C 35.796875 -40.765625 36.191406 -40.609375 36.484375 -40.296875 C 36.773438 -39.984375 36.921875 -39.597656 36.921875 -39.140625 L 36.921875 -1.859375 C 36.921875 -1.273438 36.734375 -0.816406 36.359375 -0.484375 C 35.992188 -0.160156 35.578125 0 35.109375 0 C 34.878906 0 34.628906 -0.046875 34.359375 -0.140625 C 34.085938 -0.242188 33.875 -0.390625 33.71875 -0.578125 L 7.75 -35.578125 L 8.734375 -36.109375 L 8.734375 -1.578125 C 8.734375 -1.148438 8.578125 -0.78125 8.265625 -0.46875 C 7.953125 -0.15625 7.566406 0 7.109375 0 C 6.597656 0 6.195312 -0.15625 5.90625 -0.46875 C 5.613281 -0.78125 5.46875 -1.148438 5.46875 -1.578125 L 5.46875 -39.015625 C 5.46875 -39.597656 5.640625 -40.035156 5.984375 -40.328125 C 6.335938 -40.617188 6.726562 -40.765625 7.15625 -40.765625 C 7.394531 -40.765625 7.648438 -40.710938 7.921875 -40.609375 C 8.191406 -40.515625 8.40625 -40.351562 8.5625 -40.125 L 34.234375 -5.53125 L 33.65625 -4.484375 L 33.65625 -39.140625 C 33.65625 -39.597656 33.820312 -39.984375 34.15625 -40.296875 C 34.488281 -40.609375 34.867188 -40.765625 35.296875 -40.765625 Z M 35.296875 -40.765625 "/></g></g></g><g fill="#21314d" fill-opacity="1"><g transform="translate(270.619128, 296.173649)"><g><path d="M 17.59375 0 C 17.039062 0 16.597656 -0.171875 16.265625 -0.515625 C 15.941406 -0.867188 15.78125 -1.28125 15.78125 -1.75 L 15.78125 -38.84375 L 19.390625 -38.84375 L 19.390625 -1.75 C 19.390625 -1.28125 19.210938 -0.867188 18.859375 -0.515625 C 18.515625 -0.171875 18.09375 0 17.59375 0 Z M 3.734375 -37.4375 C 3.265625 -37.4375 2.851562 -37.59375 2.5 -37.90625 C 2.15625 -38.21875 1.984375 -38.628906 1.984375 -39.140625 C 1.984375 -39.597656 2.15625 -39.984375 2.5 -40.296875 C 2.851562 -40.609375 3.265625 -40.765625 3.734375 -40.765625 L 31.453125 -40.765625 C 31.910156 -40.765625 32.3125 -40.609375 32.65625 -40.296875 C 33.007812 -39.984375 33.1875 -39.578125 33.1875 -39.078125 C 33.1875 -38.566406 33.007812 -38.164062 32.65625 -37.875 C 32.3125 -37.582031 31.910156 -37.4375 31.453125 -37.4375 Z M 3.734375 -37.4375 "/></g></g></g><g fill="#21314d" fill-opacity="1"><g transform="translate(310.905364, 296.173649)"><g><path d="M 9.140625 -1.8125 C 9.097656 -1.300781 8.894531 -0.867188 8.53125 -0.515625 C 8.164062 -0.171875 7.75 0 7.28125 0 C 6.738281 0 6.300781 -0.171875 5.96875 -0.515625 C 5.632812 -0.867188 5.46875 -1.300781 5.46875 -1.8125 L 5.46875 -38.953125 C 5.46875 -39.460938 5.640625 -39.890625 5.984375 -40.234375 C 6.335938 -40.585938 6.789062 -40.765625 7.34375 -40.765625 C 7.800781 -40.765625 8.210938 -40.585938 8.578125 -40.234375 C 8.953125 -39.890625 9.140625 -39.460938 9.140625 -38.953125 Z M 9.140625 -1.8125 "/></g></g></g><g fill="#21314d" fill-opacity="1"><g transform="translate(330.583429, 296.173649)"><g><path d="M 19.09375 -36.28125 L 4.953125 -1.109375 C 4.796875 -0.722656 4.582031 -0.429688 4.3125 -0.234375 C 4.039062 -0.0351562 3.726562 0.0625 3.375 0.0625 C 2.832031 0.0625 2.425781 -0.0820312 2.15625 -0.375 C 1.882812 -0.664062 1.726562 -1.023438 1.6875 -1.453125 C 1.644531 -1.648438 1.664062 -1.882812 1.75 -2.15625 L 17.125 -39.78125 C 17.3125 -40.207031 17.550781 -40.503906 17.84375 -40.671875 C 18.132812 -40.847656 18.476562 -40.9375 18.875 -40.9375 C 19.257812 -40.9375 19.597656 -40.828125 19.890625 -40.609375 C 20.179688 -40.398438 20.40625 -40.125 20.5625 -39.78125 L 35.875 -2.328125 C 35.945312 -2.097656 35.984375 -1.863281 35.984375 -1.625 C 35.984375 -1.082031 35.804688 -0.664062 35.453125 -0.375 C 35.109375 -0.0820312 34.703125 0.0625 34.234375 0.0625 C 33.847656 0.0625 33.507812 -0.0390625 33.21875 -0.25 C 32.925781 -0.46875 32.703125 -0.753906 32.546875 -1.109375 L 18.046875 -36.515625 Z M 8.328125 -11.765625 L 9.78125 -15.203125 L 27.84375 -15.203125 L 28.53125 -11.765625 Z M 8.328125 -11.765625 "/></g></g></g></svg>
